<svg width="61" height="61" viewBox="0 0 61 61" fill="none" xmlns="http://www.w3.org/2000/svg">
<path d="M55.2872 5.29781C55.2127 5.295 55.1368 5.29336 55.0607 5.29336H26.2062C24.3463 2.34105 21.0577 0.375 17.3181 0.375C13.5784 0.375 10.2898 2.34105 8.4299 5.29336H5.51732C2.64119 5.29336 0.301308 7.63336 0.301308 10.5095V46.2492C0.301308 49.1261 2.64178 51.4665 5.51849 51.4665H7.70181C8.34904 51.4665 8.87369 50.9418 8.87369 50.2946C8.87369 49.6475 8.34904 49.1228 7.70181 49.1228H5.51849C3.934 49.1228 2.64506 47.8337 2.64506 46.2492V10.5094C2.64506 8.92547 3.93353 7.63699 5.51732 7.63699H7.33092C6.99377 8.68008 6.82056 9.77613 6.82056 10.8725V42.9796C6.82056 43.6267 7.34521 44.1514 7.99244 44.1514H52.5858C53.2329 44.1514 53.7577 43.6267 53.7577 42.9796V13.3887C53.7577 12.7416 53.2329 12.2168 52.5858 12.2168H44.7417C44.0946 12.2168 43.5699 12.7416 43.5699 13.3887C43.5699 14.0358 44.0946 14.5605 44.7417 14.5605H51.4139V41.8079H44.1709V29.0046C44.1709 28.3575 43.6461 27.8327 42.999 27.8327H38.1205C37.4734 27.8327 36.9486 28.3575 36.9486 29.0046V41.8079H34.4331V37.5871C34.4331 36.94 33.9083 36.4152 33.2612 36.4152H28.3828C27.7356 36.4152 27.211 36.94 27.211 37.5871V41.8079H24.6954V35.4686C24.6954 34.8214 24.1708 34.2967 23.5235 34.2967H18.6451C17.9979 34.2967 17.4733 34.8214 17.4733 35.4686V41.8079H9.1642V17.4797C11.1613 19.9295 14.2191 21.3935 17.3844 21.369C21.6811 21.3428 25.6399 18.5814 27.1493 14.5605H34.4319C35.079 14.5605 35.6038 14.0358 35.6038 13.3887C35.6038 12.7416 35.079 12.2168 34.4319 12.2168H27.7297C27.9267 10.683 27.7813 9.1084 27.3054 7.63711H55.0607C56.6482 7.63711 57.9329 9.03129 57.9329 10.5949V46.2492C57.9329 47.8337 56.6434 49.1228 55.0584 49.1228H18.014C17.3667 49.1228 16.8421 49.6475 16.8421 50.2946C16.8421 50.9418 17.3667 51.4665 18.014 51.4665H24.3955L23.2426 58.0312H20.0854C19.4381 58.0312 18.9135 58.556 18.9135 59.2031C18.9135 59.8502 19.4381 60.375 20.0854 60.375H41.7972C42.4443 60.375 42.969 59.8502 42.969 59.2031C42.969 58.556 42.4443 58.0312 41.7972 58.0312H38.6258L37.3768 51.4664H55.0584C57.9359 51.4664 60.2767 49.1259 60.2767 46.2491V10.5949C60.2767 7.74809 58.088 5.42145 55.2872 5.29781ZM39.2923 30.1765H41.827V41.8079H39.2923V30.1765ZM29.5547 38.7589H32.0893V41.8079H29.5547V38.7589ZM19.8169 36.6404H22.3515V41.8079H19.8169V36.6404ZM17.3181 19.0261C12.8792 19.0261 9.16431 15.3096 9.16431 10.8724C9.16431 6.43559 12.8803 2.71875 17.3181 2.71875C21.7561 2.71875 25.4718 6.43559 25.4718 10.8724C25.4718 15.3107 21.7577 19.0261 17.3181 19.0261ZM25.6222 58.0312L26.7752 51.4664H34.991L36.2399 58.0312H25.6222Z" fill="#1787FC"/>
<path d="M43.8363 23.769C45.2623 24.0329 45.3133 22.2335 45.4865 21.3006C45.5995 20.6917 45.7125 20.0828 45.8256 19.4738C45.8842 19.1581 45.9924 18.8069 45.9774 18.4819C45.953 17.941 45.5479 17.4789 45.0147 17.382L40.7865 16.624C40.1499 16.5094 39.5405 16.9338 39.4263 17.5707C39.3121 18.2078 39.736 18.8167 40.373 18.9309L41.7433 19.1765L29.785 27.1811L26.4178 23.814C26.0165 23.4125 25.3852 23.3567 24.9194 23.681L13.7865 31.4347C13.2554 31.8045 13.1248 32.5351 13.4946 33.066C13.7224 33.3931 14.0869 33.5683 14.4573 33.5683C14.6885 33.5683 14.922 33.5001 15.1261 33.358L25.4541 26.1647L28.8083 29.519C29.204 29.9145 29.824 29.9756 30.2889 29.6642L43.1479 21.0567L42.898 22.4027C42.7799 23.0391 43.1999 23.6508 43.8363 23.769Z" fill="#1787FC"/>
<path d="M40.6664 13.9542C40.9108 13.366 40.6227 12.6684 40.0331 12.4243C39.444 12.1803 38.7467 12.4695 38.5027 13.0583C38.2583 13.6482 38.5486 14.3441 39.1367 14.5889C39.7261 14.8345 40.4224 14.5416 40.6664 13.9542Z" fill="#1787FC"/>
<path d="M11.8706 49.9734C11.6775 50.4344 11.8095 50.9817 12.187 51.3084C12.5647 51.6351 13.1258 51.6828 13.5543 51.4267C14.0452 51.1331 14.254 50.5015 14.0339 49.9735C13.6408 49.029 12.266 49.0294 11.8706 49.9734Z" fill="#1787FC"/>
<path d="M18.6774 9.92798C18.519 9.87196 18.3577 9.81384 18.1962 9.75372V6.93724C18.5361 7.05478 18.7344 7.22259 18.7501 7.23618C18.7658 7.24978 19.3742 7.73271 19.9015 7.16716C20.452 6.57665 19.8543 6.02271 19.8543 6.02271C19.8163 5.98767 19.2029 5.43536 18.1963 5.24505V4.73657C18.1963 4.28353 17.829 3.91626 17.376 3.91626C16.9229 3.91626 16.5557 4.28353 16.5557 4.73657V5.30259C16.4935 5.31829 16.4306 5.33564 16.3672 5.35474C15.3624 5.65732 14.6118 6.5156 14.4083 7.59454C14.222 8.58337 14.5423 9.53986 15.2441 10.0903C15.5831 10.3562 15.9977 10.5999 16.5557 10.8541V14.5543C16.14 14.5019 15.834 14.3699 15.3505 14.0536C14.9714 13.8055 14.4631 13.9117 14.215 14.2909C13.967 14.67 14.0733 15.1783 14.4524 15.4263C15.2746 15.9643 15.8514 16.1474 16.5557 16.2037V16.7738C16.5557 17.2269 16.9229 17.5942 17.376 17.5942C17.829 17.5942 18.1963 17.2269 18.1963 16.7738V16.1269C19.6255 15.778 20.542 14.5635 20.7435 13.3656C21.0043 11.8132 20.1934 10.4639 18.6774 9.92798ZM16.2565 8.79946C16.0417 8.63095 15.9491 8.27739 16.0205 7.89853C16.0757 7.60579 16.2442 7.26489 16.5556 7.05958V9.00489C16.4468 8.93786 16.3458 8.86943 16.2565 8.79946ZM19.1255 13.0936C19.0422 13.589 18.7269 14.1117 18.1962 14.3877V11.4997C19.2368 11.9056 19.1717 12.8188 19.1255 13.0936Z" fill="#1787FC"/>
</svg>